<svg xmlns="http://www.w3.org/2000/svg" width="189" height="24" viewBox="0 0 189 24" fill="none">
    <g clip-path="url(#clip0_466_1134)">
        <path d="M36.9904 0H0V24H36.9904V0Z" fill="#A91225"></path>
        <path
            d="M59.913 20.6688C60.7056 20.677 61.4977 20.6279 62.2828 20.5219C62.8604 20.4469 63.4249 20.2965 63.9612 20.0749C64.3771 19.9023 64.7511 19.6466 65.0588 19.3244C65.3342 19.0151 65.5482 18.6588 65.6898 18.2736C65.8454 17.8371 65.9435 17.3832 65.9819 16.9227C66.0289 16.4235 66.0523 15.8688 66.0523 15.2683C66.0581 14.8297 66.0131 14.3919 65.9181 13.9631C65.8469 13.6249 65.7342 13.2963 65.5824 12.9842C65.4563 12.7255 65.2924 12.4859 65.0957 12.2728C64.9275 12.0925 64.7395 11.9305 64.5351 11.7899C64.078 11.4954 63.5487 11.3242 63.0011 11.2939C63.452 11.2612 63.8807 11.0911 64.2263 10.8077C64.3956 10.6736 64.5478 10.5202 64.6795 10.3509C64.84 10.1409 64.972 9.91168 65.0722 9.66889C65.1991 9.35288 65.2913 9.02476 65.3474 8.68996C65.4235 8.26878 65.4594 7.84169 65.4549 7.4141C65.4606 6.82332 65.4089 6.23335 65.3005 5.65203C65.2174 5.1801 65.0078 4.73778 64.6929 4.36964C64.3418 3.99862 63.8924 3.72879 63.3939 3.58976C62.6712 3.39289 61.922 3.30377 61.1718 3.32545H48.883V20.6785L59.913 20.6688ZM50.7225 18.861V12.3544H59.2988C60.0137 12.3544 60.6414 12.3544 61.1583 12.3936C61.6092 12.4093 62.0582 12.4595 62.501 12.5437C62.8111 12.6029 63.1086 12.7133 63.3805 12.87C63.598 12.9919 63.7787 13.1675 63.9041 13.379C64.0379 13.6247 64.1233 13.8925 64.1558 14.1687C64.205 14.5343 64.2275 14.9029 64.223 15.2716C64.2292 15.7359 64.2067 16.2 64.1558 16.6617C64.1242 16.9986 64.0392 17.3288 63.9041 17.6406C63.7922 17.8995 63.6115 18.1247 63.3805 18.2932C63.1159 18.4739 62.8169 18.6015 62.501 18.6685C62.0596 18.7643 61.6102 18.8211 61.1583 18.8382C60.6347 18.8643 60.0137 18.8773 59.2988 18.8773L50.7225 18.861ZM50.7225 10.5467V5.12341H60.5441C61.049 5.11579 61.5539 5.14414 62.0546 5.20825C62.3878 5.24358 62.7077 5.35542 62.9877 5.53456C63.2236 5.70716 63.3927 5.95203 63.4677 6.2296C63.5659 6.61364 63.611 7.00868 63.602 7.40431C63.6048 7.79442 63.5858 8.1844 63.5449 8.57249C63.5179 8.86356 63.4407 9.14814 63.3167 9.41437C63.2135 9.63917 63.0543 9.83543 62.8535 9.98541C62.6203 10.1481 62.357 10.2655 62.0781 10.3313C61.6974 10.4238 61.3085 10.4806 60.9167 10.501C60.4635 10.5303 59.9097 10.5467 59.2988 10.5467H50.7225Z"
            fill="#151F3E"></path>
        <path
            d="M78.3041 5.95213C79.1103 5.94219 79.9155 6.01106 80.7075 6.1577C81.2805 6.25845 81.8284 6.46443 82.3221 6.76464C82.7283 7.0189 83.0629 7.36771 83.2955 7.77946C83.5395 8.23213 83.7061 8.72034 83.7889 9.225C83.9035 9.84228 83.9664 10.4676 83.9769 11.0948C83.997 11.7898 84.0105 12.5599 84.0105 13.405C84.0105 14.2502 84.0105 15.0366 83.9769 15.7153C83.9664 16.3435 83.9035 16.9699 83.7889 17.5883C83.7041 18.0914 83.5375 18.5783 83.2955 19.0306C83.0622 19.4445 82.728 19.7963 82.3221 20.0552C81.826 20.3486 81.2787 20.551 80.7075 20.6523C79.9156 20.7995 79.1103 20.8673 78.3041 20.8546H73.6048C72.7965 20.8673 71.9889 20.7995 71.1947 20.6523C70.6255 20.5512 70.0805 20.3488 69.5869 20.0552C69.1806 19.7948 68.8444 19.4434 68.6068 19.0306C68.3645 18.5775 68.1947 18.0911 68.1033 17.5883C67.9927 16.9695 67.9321 16.3433 67.922 15.7153C67.9063 15.0213 67.8985 14.2512 67.8985 13.405C67.8985 12.5588 67.9063 11.7887 67.922 11.0948C67.9319 10.4678 67.9926 9.84268 68.1033 9.225C68.1926 8.72061 68.3625 8.23288 68.6068 7.77946C68.8418 7.36735 69.1786 7.01859 69.5869 6.76464C70.0781 6.46448 70.6239 6.25847 71.1947 6.1577C71.989 6.01097 72.7964 5.9421 73.6048 5.95213H78.3041ZM78.3041 19.3667C78.9923 19.3667 79.5696 19.3471 80.0395 19.3014C80.4461 19.269 80.8443 19.1708 81.2177 19.011C81.5134 18.8813 81.7615 18.6674 81.9293 18.3975C82.1206 18.0703 82.2448 17.7102 82.2952 17.337C82.3824 16.7973 82.4262 16.2518 82.4261 15.7055C82.444 15.0529 82.453 14.2828 82.453 13.3952C82.453 12.5077 82.444 11.7463 82.4261 11.1111C82.4245 10.5648 82.3807 10.0194 82.2952 9.47952C82.2448 9.10637 82.1206 8.74624 81.9293 8.41902C81.767 8.14809 81.5234 7.93179 81.2311 7.79903C80.8618 7.63939 80.4664 7.54439 80.063 7.51841C79.4831 7.4624 78.9004 7.43734 78.3176 7.44336H73.6182C73.0321 7.43734 72.4461 7.4624 71.8627 7.51841C71.4605 7.54436 71.0661 7.63937 70.698 7.79903C70.4004 7.9285 70.15 8.14233 69.9796 8.41249C69.7925 8.73773 69.6696 9.09408 69.6171 9.46321C69.5367 10.0037 69.493 10.5487 69.4862 11.0948V15.699C69.4952 16.2452 69.5412 16.7902 69.6238 17.3305C69.6775 17.7016 69.7979 18.0606 69.9796 18.391C70.1519 18.6596 70.4017 18.873 70.698 19.0045C71.0667 19.1642 71.4604 19.2624 71.8627 19.2949C72.3394 19.3406 72.9234 19.3602 73.6182 19.3602L78.3041 19.3667Z"
            fill="#151F3E"></path>
        <path
            d="M78.3041 5.95213C79.1103 5.94219 79.9155 6.01106 80.7075 6.1577C81.2805 6.25845 81.8284 6.46443 82.3221 6.76464C82.7283 7.0189 83.0629 7.36771 83.2955 7.77946C83.5395 8.23213 83.7061 8.72034 83.7889 9.225C83.9035 9.84228 83.9664 10.4676 83.9769 11.0948C83.997 11.7898 84.0105 12.5599 84.0105 13.405C84.0105 14.2502 84.0105 15.0366 83.9769 15.7153C83.9664 16.3435 83.9035 16.9699 83.7889 17.5883C83.7041 18.0914 83.5375 18.5783 83.2955 19.0306C83.0622 19.4445 82.728 19.7963 82.3221 20.0552C81.826 20.3486 81.2787 20.551 80.7075 20.6523C79.9156 20.7995 79.1103 20.8673 78.3041 20.8546H73.6048C72.7965 20.8673 71.9889 20.7995 71.1947 20.6523C70.6255 20.5512 70.0805 20.3488 69.5869 20.0552C69.179 19.7966 68.8425 19.4448 68.6068 19.0306C68.3645 18.5775 68.1947 18.0911 68.1033 17.5883C67.9922 16.9696 67.9327 16.3433 67.9254 15.7153C67.9052 15.0202 67.8985 14.2502 67.8985 13.405C67.8985 12.5599 67.8985 11.7898 67.9254 11.0948C67.9325 10.4678 67.992 9.84255 68.1033 9.225C68.1926 8.72061 68.3625 8.23288 68.6068 7.77946C68.8399 7.36603 69.1771 7.01686 69.5869 6.76464C70.0781 6.46448 70.6239 6.25847 71.1947 6.1577C71.989 6.01097 72.7964 5.9421 73.6048 5.95213H78.3041ZM78.3041 19.3667C78.9923 19.3667 79.5696 19.3471 80.0395 19.3014C80.4461 19.269 80.8443 19.1708 81.2177 19.011C81.5134 18.8813 81.7615 18.6674 81.9293 18.3975C82.1206 18.0703 82.2448 17.7102 82.2952 17.337C82.3824 16.7973 82.4262 16.2518 82.4261 15.7055C82.444 15.0529 82.453 14.2828 82.453 13.3952C82.453 12.5077 82.444 11.7463 82.4261 11.1111C82.4245 10.5648 82.3807 10.0194 82.2952 9.47952C82.2448 9.10637 82.1206 8.74624 81.9293 8.41902C81.767 8.14809 81.5234 7.93179 81.2311 7.79903C80.8618 7.63939 80.4664 7.54439 80.063 7.51841C79.4831 7.4624 78.9004 7.43734 78.3176 7.44336H73.6182C73.0321 7.43734 72.4461 7.4624 71.8627 7.51841C71.4605 7.54436 71.0661 7.63937 70.698 7.79903C70.4017 7.93052 70.1519 8.14388 69.9796 8.41249C69.7921 8.73755 69.6691 9.09398 69.6171 9.46321C69.5367 10.0037 69.493 10.5487 69.4862 11.0948V15.699C69.4952 16.2452 69.5412 16.7902 69.6238 17.3305C69.6775 17.7016 69.7979 18.0606 69.9796 18.391C70.1537 18.6582 70.403 18.8711 70.698 19.0045C71.0667 19.1642 71.4604 19.2624 71.8627 19.2949C72.3394 19.3406 72.9234 19.3602 73.6182 19.3602L78.3041 19.3667Z"
            stroke="#151F3E" stroke-width="0.49"></path>
        <path
            d="M88.0619 7.52459L100.307 20.342H102.412V6.03662H100.831V18.5538L89.2535 6.03662H86.4809V20.342H88.0619V7.52459Z"
            fill="#151F3E"></path>
        <path
            d="M88.0585 20.3418H86.4876V6.0332H89.2569L100.834 18.5537V6.0332H102.408V20.3418H100.304L88.0585 7.52443V20.3418Z"
            stroke="#151F3E" stroke-width="0.49"></path>
        <path
            d="M119.386 20.3418L121.212 20.3255L113.905 6.0332H111.653L104.503 20.3418H106.315L107.95 17.0787H117.758L119.386 20.3418ZM108.695 15.5712L112.864 7.2177L117.016 15.5712H108.695Z"
            fill="#151F3E"></path>
        <path
            d="M117.819 17.0626H107.896L106.332 20.3257H104.503L111.81 6.01709H113.905L121.212 20.3257H119.383L117.819 17.0626ZM117.033 15.5714L112.861 7.22769L108.682 15.5714H117.033Z"
            stroke="#151F3E" stroke-width="0.49"></path>
        <path
            d="M130.752 11.094C129.916 11.094 129.198 11.0712 128.594 11.032C128.08 11.0027 127.569 10.934 127.066 10.8265C126.713 10.7545 126.374 10.6301 126.059 10.4577C125.818 10.3234 125.614 10.1342 125.465 9.90627C125.326 9.66899 125.237 9.40721 125.203 9.13618C125.158 8.81179 125.135 8.48469 125.136 8.15725C125.119 7.64268 125.213 7.13035 125.411 6.65297C125.612 6.23251 125.958 5.89328 126.388 5.69362C126.992 5.41861 127.641 5.24748 128.305 5.18785C129.33 5.07585 130.361 5.02572 131.393 5.03774H133.259C134.199 5.03774 134.982 5.06167 135.609 5.10953C136.142 5.13233 136.666 5.25301 137.153 5.46521C137.531 5.63961 137.831 5.94253 137.996 6.31687C138.185 6.82009 138.27 7.35445 138.247 7.88968H140.124C140.128 7.40109 140.089 6.91304 140.006 6.43108C139.938 6.01847 139.799 5.62011 139.593 5.25311C139.392 4.90593 139.118 4.60273 138.791 4.36229C138.407 4.08952 137.979 3.87905 137.526 3.73904C136.935 3.5529 136.325 3.42927 135.706 3.37031C134.893 3.28942 134.076 3.25347 133.259 3.26263H131.383C130.384 3.25606 129.385 3.30509 128.392 3.40946C127.653 3.47561 126.922 3.61334 126.21 3.82061C125.679 3.97375 125.179 4.21316 124.73 4.5287C124.365 4.78867 124.056 5.11571 123.82 5.49131C123.595 5.86512 123.441 6.27513 123.364 6.70192C123.28 7.18048 123.24 7.66528 123.243 8.15073C123.242 8.61404 123.268 9.07705 123.32 9.53754C123.364 9.94137 123.478 10.3351 123.656 10.7025C123.835 11.0622 124.093 11.3795 124.411 11.6324C124.811 11.9393 125.266 12.1706 125.754 12.3144C126.422 12.5172 127.109 12.6549 127.805 12.7256C128.783 12.8288 129.768 12.8767 130.752 12.8691H133.33C134.177 12.8565 135.025 12.9078 135.864 13.0225C136.396 13.0843 136.908 13.258 137.365 13.5316C137.713 13.7658 137.966 14.1126 138.076 14.5105C138.208 15.0046 138.27 15.5141 138.257 16.0246C138.272 16.5505 138.183 17.0743 137.996 17.568C137.815 17.998 137.496 18.3596 137.086 18.5991C136.552 18.8971 135.964 19.0911 135.354 19.1702C134.452 19.3034 133.54 19.3634 132.628 19.3496H130.124C129.188 19.3496 128.399 19.3268 127.775 19.2779C127.232 19.2503 126.701 19.1195 126.21 18.8928C125.831 18.7128 125.533 18.4041 125.371 18.0248C125.18 17.5143 125.093 16.9722 125.116 16.4292H123.24C123.235 16.9199 123.275 17.4101 123.357 17.8943C123.424 18.3087 123.565 18.7085 123.773 19.0755C123.974 19.425 124.245 19.7323 124.569 19.9794C124.947 20.2668 125.374 20.4877 125.831 20.632C126.422 20.8146 127.03 20.9392 127.647 21.004C128.465 21.0926 129.288 21.134 130.111 21.128H132.615C133.528 21.1357 134.441 21.0812 135.347 20.9649C136.035 20.8838 136.711 20.7261 137.361 20.495C137.858 20.3192 138.32 20.0645 138.731 19.7412C139.077 19.4591 139.365 19.1159 139.58 18.7297C139.795 18.3391 139.942 17.9169 140.016 17.4799C140.1 16.998 140.141 16.51 140.137 16.0213C140.141 15.5353 140.117 15.0495 140.067 14.566C140.023 14.1482 139.915 13.7391 139.748 13.3521C139.583 12.9854 139.347 12.653 139.053 12.3732C138.703 12.0601 138.292 11.8183 137.845 11.6618C137.244 11.4502 136.62 11.3057 135.985 11.2311C135.105 11.1278 134.219 11.0798 133.333 11.0875L130.752 11.094Z"
            fill="#151F3E"></path>
        <path
            d="M162.821 20.4494V13.8939H172.901V12.4026H162.821V7.63527H173.432V6.14404H161.23V20.4494H162.821Z"
            fill="#151F3E"></path>
        <path
            d="M161.23 20.4494V6.13428H173.435V7.62551H162.815V12.3994H172.905V13.8906H162.815V20.4396L161.23 20.4494Z"
            stroke="#151F3E" stroke-width="0.48"></path>
        <path d="M174.771 6.08838V7.57961H181.062V20.397H182.632V7.57961H188.923V6.08838H174.771Z"
            fill="#151F3E"></path>
        <path d="M188.919 6.08838V7.57961H182.636V20.3937H181.062V7.57961H174.778V6.08838H188.919Z"
            stroke="#151F3E" stroke-width="0.49"></path>
        <path
            d="M148.317 5.71075C147.51 5.697 146.704 5.7637 145.911 5.9098C145.34 6.01406 144.794 6.21982 144.299 6.51673C143.895 6.77378 143.562 7.12338 143.329 7.53481C143.084 7.98763 142.914 8.47559 142.826 8.98036C142.714 9.59893 142.653 10.2253 142.645 10.8534C142.628 11.5484 142.618 12.3152 142.618 13.1604C142.618 14.0055 142.618 14.7919 142.645 15.4706C142.653 16.0987 142.714 16.7251 142.826 17.3436C142.914 17.8484 143.084 18.3364 143.329 18.7892C143.564 19.2014 143.899 19.551 144.306 19.8073C144.8 20.1042 145.346 20.3099 145.917 20.4142C146.71 20.5603 147.517 20.627 148.324 20.6133H153.023C153.83 20.627 154.637 20.5603 155.43 20.4142C156.001 20.3099 156.547 20.1042 157.041 19.8073C157.448 19.5526 157.783 19.2025 158.015 18.7892C158.256 18.3348 158.425 17.8474 158.515 17.3436C158.627 16.7249 158.688 16.0987 158.699 15.4706C158.72 14.7767 158.73 14.0066 158.73 13.1604C158.73 12.3152 158.73 11.5484 158.699 10.8534C158.688 10.2253 158.627 9.59907 158.515 8.98036C158.425 8.47663 158.256 7.9892 158.015 7.53481C157.783 7.12147 157.448 6.77137 157.041 6.51673C156.547 6.21982 156.001 6.01406 155.43 5.9098C154.637 5.7637 153.83 5.697 153.023 5.71075H148.317ZM148.317 19.122C147.626 19.122 147.042 19.0992 146.569 19.0535C146.164 19.0248 145.768 18.9288 145.397 18.7696C145.096 18.6409 144.843 18.4257 144.672 18.1529C144.495 17.8223 144.381 17.4628 144.336 17.0924C144.253 16.5523 144.209 16.007 144.205 15.4608C144.205 14.8082 144.185 14.0512 144.185 13.1538V10.8501C144.189 10.3039 144.232 9.75867 144.316 9.21856C144.367 8.84684 144.488 8.48736 144.672 8.15806C144.844 7.89067 145.093 7.67758 145.387 7.5446C145.758 7.38542 146.154 7.28939 146.558 7.26071C147.032 7.21503 147.616 7.19219 148.307 7.19219H153.007C153.701 7.19219 154.282 7.21503 154.755 7.26071C155.159 7.28938 155.554 7.38541 155.924 7.5446C156.215 7.67863 156.461 7.89162 156.632 8.15806C156.82 8.48768 156.944 8.84834 156.998 9.22183C157.081 9.76204 157.126 10.3072 157.132 10.8534C157.145 11.506 157.152 12.2739 157.152 13.1571C157.152 14.0545 157.152 14.8213 157.132 15.4641C157.126 16.0103 157.081 16.5554 156.998 17.0957C156.944 17.468 156.82 17.8275 156.632 18.1562C156.461 18.4256 156.212 18.6401 155.917 18.7729C155.546 18.9321 155.15 19.0281 154.745 19.0568C154.273 19.1025 153.692 19.1253 153.003 19.1253L148.317 19.122Z"
            fill="#151F3E"></path>
        <path
            d="M153.01 5.70761C153.815 5.69712 154.619 5.7638 155.41 5.90666C155.984 6.01491 156.532 6.22508 157.028 6.52665C157.434 6.7847 157.767 7.1368 157.998 7.55126C158.236 8.00379 158.401 8.48909 158.488 8.99028C158.603 9.60761 158.668 10.2328 158.683 10.86C158.703 11.5551 158.713 12.3284 158.713 13.1736C158.713 14.0187 158.713 14.7823 158.683 15.4806C158.668 16.11 158.603 16.7373 158.488 17.3568C158.401 17.8591 158.236 18.3454 157.998 18.7991C157.769 19.2139 157.435 19.5654 157.028 19.8205C156.533 20.1152 155.985 20.3167 155.413 20.4143C154.622 20.5572 153.818 20.6239 153.013 20.6134H148.314C147.506 20.6256 146.698 20.5589 145.904 20.4143C145.334 20.3136 144.789 20.1075 144.299 19.8074C143.894 19.5503 143.561 19.1993 143.329 18.7861C143.082 18.3347 142.909 17.8478 142.819 17.3438C142.711 16.7237 142.652 16.0964 142.645 15.4675C142.645 14.7692 142.624 14.0024 142.624 13.1605C142.624 12.3186 142.624 11.529 142.645 10.847C142.652 10.2202 142.711 9.59507 142.819 8.97722C142.911 8.47474 143.084 7.98927 143.329 7.5382C143.567 7.12787 143.905 6.78053 144.313 6.52665C144.805 6.23001 145.349 6.02425 145.917 5.91971C146.712 5.77517 147.519 5.70849 148.327 5.72067L153.01 5.70761ZM153.01 19.1222C153.681 19.1222 154.275 19.0993 154.749 19.0536C155.15 19.0245 155.544 18.9296 155.913 18.773C156.209 18.6415 156.457 18.4281 156.628 18.1595C156.817 17.8299 156.941 17.4693 156.994 17.0958C157.076 16.5554 157.121 16.0104 157.129 15.4642C157.142 14.8116 157.149 14.0426 157.149 13.1572C157.149 12.2729 157.149 11.5029 157.129 10.8535C157.122 10.3073 157.077 9.76217 156.994 9.22196C156.944 8.84768 156.82 8.4864 156.628 8.15819C156.464 7.88707 156.218 7.67172 155.924 7.54147C155.552 7.38123 155.154 7.28411 154.749 7.25432C154.275 7.20863 153.698 7.18253 153.01 7.18253H148.311C147.616 7.18253 147.028 7.20863 146.555 7.25432C146.153 7.28413 145.759 7.38127 145.39 7.54147C145.093 7.67215 144.842 7.88708 144.672 8.15819C144.481 8.48541 144.356 8.84554 144.306 9.21869C144.219 9.75851 144.175 10.3039 144.172 10.8502V13.154C144.172 14.0383 144.172 14.8051 144.192 15.461C144.196 16.0073 144.241 16.5525 144.326 17.0925C144.376 17.4651 144.493 17.8263 144.672 18.1595C144.846 18.4267 145.095 18.6396 145.39 18.773C145.76 18.9296 146.153 19.0245 146.555 19.0536C147.028 19.0993 147.616 19.1222 148.311 19.1222H153.01Z"
            stroke="#151F3E" stroke-width="0.49"></path>
        <path
            d="M3.28952 4.15674V5.2205H9.92899C14.2658 5.2205 16.5215 6.99236 16.5215 8.94368C16.5215 11.0875 14.3464 12.7517 9.89542 12.755H3.28952V13.8709C3.28952 13.8709 6.66967 13.9101 9.30465 13.897C14.6115 13.9884 17.5721 11.962 17.5889 8.96C17.5889 5.5925 14.0308 4.10453 9.92899 4.17305L3.28952 4.15674Z"
            fill="white"></path>
        <path
            d="M3.28952 10.4746V11.5351H9.92899C14.2658 11.5351 16.5215 13.3233 16.5215 15.2746C16.5215 17.4185 14.3464 19.0826 9.89542 19.0859H3.28952V20.2019C3.28952 20.2019 6.66967 20.2312 9.30465 20.2312C14.6115 20.3226 17.5721 18.2962 17.5889 15.2942C17.5889 11.9234 14.0308 10.442 9.92899 10.504L3.28952 10.4746Z"
            fill="white"></path>
        <path
            d="M19.435 10.4746V11.5351H26.0745C30.4113 11.5351 32.6703 13.3233 32.6703 15.2746C32.6703 17.4185 30.4919 19.0826 26.0409 19.0859H19.435V20.2019C19.435 20.2019 22.8253 20.2312 25.4502 20.2312C30.7537 20.3226 33.7176 18.2962 33.7344 15.2942C33.7344 11.9267 30.1763 10.4387 26.0745 10.5072L19.435 10.4746Z"
            fill="white"></path>
        <path
            d="M32.61 4.15674V5.2205H26.0041C21.6941 5.2205 19.4452 6.99236 19.4452 8.94368C19.4452 11.0875 21.6102 12.7517 26.0377 12.755H32.61V13.8709C32.61 13.8709 29.2533 13.9101 26.6251 13.897C21.3484 13.9884 18.3979 11.962 18.3845 8.96C18.3845 5.5925 21.9257 4.10453 26.0041 4.17305L32.61 4.15674Z"
            fill="white"></path>
    </g>
    <defs>
        <clipPath id="clip0_466_1134">
            <rect width="189" height="24" fill="white"></rect>
        </clipPath>
    </defs>
</svg> 